# xmcd CD database file
#
# Track frame offsets:
#	150
#	19369
#	29372
#
# Disc length: 505 seconds
#
# Revision: 0
# Processed by: cddbd v1.5.1PL2 Copyright (c) Steve Scherf et al.
# Submitted via: CDex 1.51
#
DISCID=1e01f703
DTITLE=PM with T-Nightz - immiGraTion
DYEAR=2002
DGENRE=Instrumental
TTITLE0=Joyful Tea Time
TTITLE1=wish
TTITLE2=a Little cat：Winter fall Mix
EXTD=YEAR: 2002
EXTT0=
EXTT1=
EXTT2=
PLAYORDER=
